<?xml version="1.0" encoding="UTF-8" standalone="no"?>
<!-- Created with Inkscape (http://www.inkscape.org/) -->

<svg
   width="210mm"
   height="297mm"
   viewBox="0 0 210 297"
   version="1.1"
   id="svg5"
   xml:space="preserve"
   inkscape:version="1.2.2 (732a01da63, 2022-12-09)"
   sodipodi:docname="contact.svg"
   xmlns:inkscape="http://www.inkscape.org/namespaces/inkscape"
   xmlns:sodipodi="http://sodipodi.sourceforge.net/DTD/sodipodi-0.dtd"
   xmlns="http://www.w3.org/2000/svg"
   xmlns:svg="http://www.w3.org/2000/svg"><sodipodi:namedview
     id="namedview7"
     pagecolor="#ffffff"
     bordercolor="#000000"
     borderopacity="0.25"
     inkscape:showpageshadow="2"
     inkscape:pageopacity="0.0"
     inkscape:pagecheckerboard="0"
     inkscape:deskcolor="#d1d1d1"
     inkscape:document-units="mm"
     showgrid="false"
     inkscape:zoom="0.13338729"
     inkscape:cx="-1375.6933"
     inkscape:cy="-5772.6639"
     inkscape:window-width="1920"
     inkscape:window-height="1027"
     inkscape:window-x="-8"
     inkscape:window-y="22"
     inkscape:window-maximized="1"
     inkscape:current-layer="layer1" /><defs
     id="defs2" /><g
     inkscape:label="Layer 1"
     inkscape:groupmode="layer"
     id="layer1"><path
       style="fill:#020202;stroke:none;stroke-width:0.264583"
       d="m -633.69605,-1591.0045 c -12.569,1.6551 -23.7817,8.9881 -27.7737,21.5835 -2.3398,7.3827 -1.595,15.3805 -1.595,23.0188 v 37.5708 c 0,12.9024 -2.184,27.5384 5.211,38.8938 12.0054,18.4348 35.6877,14.2875 54.5848,14.2875 8.3288,0 17.15,0.8173 25.4,-0.3779 11.7745,-1.7057 22.12,-10.3872 25.5487,-21.8471 2.2558,-7.5396 1.4388,-15.7719 1.4388,-23.548 v -39.4229 c 0,-11.9152 1.7256,-24.8726 -4.875,-35.4541 -11.6617,-18.6955 -34.7487,-14.8167 -53.5979,-14.8167 -7.9248,0 -16.4886,-0.9219 -24.3417,0.1123 m 0,10.5468 c 10.1769,-1.2499 21.2252,-0.076 31.4854,-0.076 7.6444,0 16.3103,-1.126 23.8125,0.3834 5.6304,1.1329 10.6402,4.5372 13.6978,9.4062 4.5706,7.2787 3.2356,16.4031 3.2356,24.6063 v 43.127 c 0,7.0896 1.1972,15.4046 -0.9912,22.225 -2.5164,7.8431 -9.4816,13.2858 -17.5297,14.4389 -5.7819,0.8281 -12.1491,0.1132 -17.9916,0.1132 h -24.3417 c -10.6561,0 -21.0815,0.09 -27.2482,-10.3187 -4.3063,-7.2684 -2.9143,-16.5076 -2.9143,-24.6063 v -42.5979 c 0,-7.0895 -1.1973,-15.4046 0.9912,-22.225 2.5348,-7.9002 9.6279,-13.4734 17.7942,-14.4763 m 25.1354,18.2937 c -3.4904,0.5001 -6.6992,1.6886 -9.525,3.8291 -14.7682,11.1863 -5.013,36.7334 13.7584,34.0444 3.4991,-0.5013 6.6984,-1.6787 9.525,-3.8287 14.738,-11.211 5.0384,-36.7375 -13.7584,-34.0448 m 0.7938,10.5495 c 10.845,-1.5634 13.5461,15.2032 2.6458,16.7746 -10.845,1.5634 -13.5461,-15.2032 -2.6458,-16.7746 m -3.175,36.2807 c -9.2467,1.229 -17.3932,6.4998 -20.7897,15.4982 -1.6367,4.3363 -3.861,13.3533 3.0626,14.2039 6.8006,0.8359 5.3134,-7.9925 7.5314,-11.8226 3.8708,-6.6847 12.0046,-8.7196 19.1915,-7.0107 4.2693,1.0152 8.3466,4.4564 9.87,8.5982 1.3931,3.7872 0.5779,10.9995 6.7988,10.2351 8.4611,-1.0395 3.7674,-13.8829 1.1075,-18.1726 -5.6488,-9.1104 -16.405,-12.9072 -26.7721,-11.5295 z"
       id="path406" /></g></svg>
