<?xml version="1.0" encoding="UTF-8" standalone="no"?>
<!-- Created with Inkscape (http://www.inkscape.org/) -->

<svg
   width="210mm"
   height="297mm"
   viewBox="0 0 210 297"
   version="1.1"
   id="svg5"
   xml:space="preserve"
   inkscape:version="1.2.2 (732a01da63, 2022-12-09)"
   sodipodi:docname="logo.svg"
   xmlns:inkscape="http://www.inkscape.org/namespaces/inkscape"
   xmlns:sodipodi="http://sodipodi.sourceforge.net/DTD/sodipodi-0.dtd"
   xmlns="http://www.w3.org/2000/svg"
   xmlns:svg="http://www.w3.org/2000/svg"><sodipodi:namedview
     id="namedview7"
     pagecolor="#ffffff"
     bordercolor="#000000"
     borderopacity="0.25"
     inkscape:showpageshadow="2"
     inkscape:pageopacity="0.0"
     inkscape:pagecheckerboard="0"
     inkscape:deskcolor="#d1d1d1"
     inkscape:document-units="mm"
     showgrid="false"
     inkscape:zoom="0.53354917"
     inkscape:cx="404.83617"
     inkscape:cy="597.88304"
     inkscape:window-width="1920"
     inkscape:window-height="1027"
     inkscape:window-x="-8"
     inkscape:window-y="22"
     inkscape:window-maximized="1"
     inkscape:current-layer="layer1" /><defs
     id="defs2" /><g
     inkscape:label="Layer 1"
     inkscape:groupmode="layer"
     id="layer1"><g
       id="g207"
       transform="matrix(0.56868465,0,0,0.56868465,20.641187,63.232615)"><path
         style="fill:#f1f1f1;stroke-width:0.264583"
         d="m 149.87288,216.43496 c 0.50364,-2.17155 4.62265,-24.6696 4.60327,-25.14311 -0.0132,-0.32319 0.40992,-2.8498 0.94031,-5.6147 0.53039,-2.7649 1.2533,-6.5749 1.60647,-8.46667 0.35316,-1.89177 0.72043,-3.82653 0.81616,-4.29948 l 0.17403,-0.85989 H 131.571 105.12888 l -1.63718,8.79739 c -0.90045,4.83857 -1.66677,9.09506 -1.70293,9.45886 -0.0362,0.3638 -0.15062,0.72527 -0.25434,0.80328 -0.17464,0.13132 -2.268498,10.87683 -3.246197,16.65922 -0.233749,1.38245 -0.487304,2.7219 -0.563457,2.97656 -0.129593,0.43337 -1.032557,0.46302 -14.102731,0.46302 H 69.657771 l 0.36436,-1.91823 c 1.442657,-7.5951 3.235624,-17.61865 3.2301,-18.05781 -0.0037,-0.29104 0.897257,-5.23214 2.002044,-10.98021 1.104786,-5.74807 3.500009,-18.3687 5.322715,-28.04583 1.822707,-9.67714 3.897085,-20.67838 4.60973,-24.44721 0.712647,-3.76883 1.3911,-6.93562 1.507678,-7.03732 0.116575,-0.10169 1.40258,-1.24807 2.857788,-2.54751 1.455208,-1.29944 4.788958,-4.25176 7.408333,-6.56071 2.619375,-2.30895 5.357811,-4.75408 6.085421,-5.43361 0.7276,-0.67953 1.50151,-1.31036 1.71979,-1.40183 0.21828,-0.0915 3.72972,-3.14073 7.80319,-6.77612 4.07347,-3.635385 7.42615,-6.589043 7.4504,-6.56368 0.0242,0.02537 -0.47256,2.753006 -1.10401,6.06143 -0.63146,3.30842 -1.21234,6.59221 -1.29085,7.29731 -0.12413,1.11475 -1.76178,10.02165 -5.72501,31.13737 -0.57358,3.05594 -1.04409,5.64555 -1.04558,5.75469 -0.002,0.10914 11.89508,0.19844 26.43685,0.19844 h 26.43957 l 0.27297,-1.38906 c 0.15014,-0.76399 0.3884,-2.04391 0.52949,-2.84427 0.14108,-0.80037 1.51574,-8.20529 3.0548,-16.45539 1.53907,-8.2501 2.82349,-15.30455 2.85428,-15.67656 0.0308,-0.37201 0.13582,-0.67639 0.23341,-0.67639 0.0976,0 0.2456,-0.38695 0.32893,-0.85989 0.0833,-0.47295 0.40779,-2.25888 0.72105,-3.96875 l 0.56956,-3.108857 h 14.0106 c 13.21893,0 14.00289,0.02617 13.87434,0.46302 -0.21589,0.733703 -1.21024,6.439257 -1.32569,7.606767 -0.0949,0.95963 -1.90425,10.67985 -13.2683,71.27962 -1.94852,10.39066 -3.46909,19.01133 -3.37905,19.15703 0.09,0.14569 0.0514,0.19547 -0.086,0.11059 -0.14358,-0.0887 -1.01529,3.9132 -2.05142,9.41798 -0.99097,5.26475 -1.9189,10.13783 -2.06209,10.82905 l -0.26033,1.25677 H 163.7408 149.73477 Z"
         id="path221" /><path
         style="fill:#e8e8e8;stroke-width:0.264583"
         d="m 156.69021,217.09661 c 3.89268,-0.0412 10.26252,-0.0412 14.15521,0 3.89268,0.0412 0.70776,0.075 -7.07761,0.075 -7.78536,0 -10.97029,-0.0337 -7.0776,-0.075 z m -50.0724,-113.93706 c 0,-0.0549 0.20836,-0.2633 0.46302,-0.46302 0.41965,-0.32911 0.42901,-0.31975 0.0999,0.0999 -0.34565,0.44073 -0.56292,0.58089 -0.56292,0.36313 z m 2.38125,-2.11667 c 0,-0.0549 0.20836,-0.2633 0.46302,-0.46302 0.41965,-0.32911 0.42901,-0.31975 0.0999,0.0999 -0.34565,0.44072 -0.56292,0.58088 -0.56292,0.36312 z m 2.64583,-2.413646 c 0.34178,-0.363802 0.68094,-0.661458 0.7537,-0.661458 0.0728,0 -0.14734,0.297656 -0.48911,0.661458 -0.34178,0.363802 -0.68094,0.661459 -0.7537,0.661459 -0.0728,0 0.14734,-0.297657 0.48911,-0.661459 z m 2.51355,-2.248958 c 0.26339,-0.291042 0.53842,-0.529167 0.61118,-0.529167 0.0728,0 -0.0832,0.238125 -0.3466,0.529167 -0.26339,0.291042 -0.53842,0.529167 -0.61118,0.529167 -0.0728,0 0.0832,-0.238125 0.3466,-0.529167 z m 1.98437,-1.687396 c 0,-0.05494 0.20836,-0.2633 0.46302,-0.463021 0.41965,-0.329107 0.42901,-0.319749 0.0999,0.0999 -0.34565,0.44073 -0.56292,0.580888 -0.56292,0.363125 z m 2.77813,-2.545937 c 0.26339,-0.291042 0.53842,-0.529167 0.61118,-0.529167 0.0728,0 -0.0832,0.238125 -0.3466,0.529167 -0.26339,0.291041 -0.53842,0.529166 -0.61118,0.529166 -0.0728,0 0.0832,-0.238125 0.3466,-0.529166 z"
         id="path219" /><path
         style="fill:#d0d0d0;stroke-width:0.264583"
         d="m 105.03031,104.48246 c 0,-0.0549 0.20836,-0.2633 0.46302,-0.46302 0.41965,-0.3291 0.42901,-0.31975 0.0999,0.0999 -0.34565,0.44073 -0.56292,0.58089 -0.56292,0.36312 z m 2.38125,-2.11666 c 0,-0.0549 0.20836,-0.2633 0.46302,-0.46302 0.41965,-0.32911 0.42901,-0.31975 0.0999,0.0999 -0.34565,0.44073 -0.56292,0.58089 -0.56292,0.36313 z m 2.38125,-2.11667 c 0,-0.0549 0.20836,-0.2633 0.46302,-0.463021 0.41965,-0.329107 0.42901,-0.319749 0.0999,0.0999 -0.34565,0.440721 -0.56292,0.580881 -0.56292,0.363121 z m 2.64583,-2.38125 c 0,-0.05494 0.20836,-0.2633 0.46303,-0.463021 0.41964,-0.329107 0.429,-0.319749 0.0999,0.0999 -0.34564,0.44073 -0.56292,0.580888 -0.56292,0.363125 z m 66.74115,-1.156687 c 3.89268,-0.04124 10.26253,-0.04124 14.15521,0 3.89268,0.04124 0.70776,0.07498 -7.07761,0.07498 -7.78536,0 -10.97028,-0.03374 -7.0776,-0.07498 z m -64.3599,-0.95998 c 0,-0.05494 0.20836,-0.2633 0.46303,-0.463021 0.41964,-0.329107 0.429,-0.319749 0.0999,0.0999 -0.34564,0.440729 -0.56292,0.580887 -0.56292,0.363124 z m 2.11667,-1.852083 c 0,-0.05494 0.20836,-0.2633 0.46302,-0.463021 0.41965,-0.329107 0.42901,-0.319749 0.0999,0.0999 -0.34565,0.44073 -0.56292,0.580888 -0.56292,0.363125 z"
         id="path217" /><path
         style="fill:#b0b0b0;stroke-width:0.264583"
         d="m 76.521457,211.27577 c 3.892682,-0.0412 10.262526,-0.0412 14.155208,0 3.892682,0.0412 0.707761,0.075 -7.077604,0.075 -7.785365,0 -10.970286,-0.0337 -7.077604,-0.075 z M 105.82406,103.68871 c 0,-0.0549 0.20836,-0.2633 0.46302,-0.46302 0.41965,-0.3291 0.42901,-0.31975 0.0999,0.0999 -0.34565,0.44073 -0.56292,0.58089 -0.56292,0.36312 z m 2.38125,-2.11666 c 0,-0.0549 0.20836,-0.2633 0.46302,-0.46302 0.41965,-0.32911 0.42901,-0.31975 0.0999,0.0999 -0.34565,0.44073 -0.56292,0.58089 -0.56292,0.36313 z m 2.38125,-2.11667 c 0,-0.05494 0.20836,-0.2633 0.46302,-0.463021 0.41965,-0.329107 0.42901,-0.319749 0.0999,0.0999 -0.34565,0.44073 -0.56292,0.580888 -0.56292,0.363125 z m 2.64583,-2.38125 c 0,-0.05494 0.20836,-0.2633 0.46303,-0.463021 0.41964,-0.329107 0.429,-0.319749 0.0999,0.0999 -0.34564,0.44073 -0.56292,0.580888 -0.56292,0.363125 z m 2.38125,-2.116667 c 0,-0.05494 0.20836,-0.2633 0.46303,-0.463021 0.41964,-0.329107 0.429,-0.319749 0.0999,0.0999 -0.34564,0.440729 -0.56292,0.580887 -0.56292,0.363124 z m 2.11667,-1.852083 c 0,-0.05494 0.20836,-0.2633 0.46302,-0.463021 0.41965,-0.329107 0.42901,-0.319749 0.0999,0.0999 -0.34565,0.44073 -0.56292,0.580888 -0.56292,0.363125 z m 2.40214,-1.906527 c 0.0127,-0.308226 0.0754,-0.370919 0.15985,-0.159853 0.0764,0.190995 0.067,0.419198 -0.0209,0.507119 -0.0879,0.08792 -0.15045,-0.06835 -0.13896,-0.347266 z"
         id="path215" /><path
         style="fill:#8e8e8e;stroke-width:0.264583"
         d="m 69.33245,211.0551 c 0.0127,-0.30823 0.07539,-0.37092 0.159851,-0.15985 0.07643,0.19099 0.06703,0.4192 -0.02088,0.50712 -0.08792,0.0879 -0.150453,-0.0684 -0.138965,-0.34727 z m 37.28536,-108.16014 c 0,-0.0549 0.20836,-0.2633 0.46302,-0.46302 0.41965,-0.3291 0.42901,-0.31975 0.0999,0.0999 -0.34565,0.44073 -0.56292,0.58089 -0.56292,0.36312 z m 2.38125,-2.11666 c 0,-0.0549 0.20836,-0.2633 0.46302,-0.46302 0.41965,-0.329112 0.42901,-0.319753 0.0999,0.0999 -0.34565,0.44073 -0.56292,0.58089 -0.56292,0.36313 z m 2.38125,-2.11667 c 0,-0.05494 0.20836,-0.2633 0.46302,-0.463021 0.41965,-0.329107 0.42901,-0.319749 0.0999,0.0999 -0.34565,0.44073 -0.56292,0.580888 -0.56292,0.363125 z m 5.02708,-4.497917 c 0,-0.05494 0.20836,-0.2633 0.46303,-0.463021 0.41964,-0.329107 0.429,-0.319748 0.0999,0.0999 -0.34564,0.440729 -0.56292,0.580887 -0.56292,0.363124 z m 2.11667,-1.852083 c 0,-0.05494 0.20836,-0.2633 0.46302,-0.463021 0.41965,-0.329107 0.42901,-0.319749 0.0999,0.0999 -0.34565,0.44073 -0.56292,0.580888 -0.56292,0.363125 z"
         id="path213" /><path
         style="fill:#767676;stroke-width:0.264583"
         d="m 105.03031,104.21788 c 0,-0.0549 0.20836,-0.2633 0.46302,-0.46302 0.41965,-0.32911 0.42901,-0.31975 0.0999,0.0999 -0.34565,0.44072 -0.56292,0.58088 -0.56292,0.36312 z m 2.77813,-2.54594 c 0.26339,-0.29104 0.53842,-0.52916 0.61118,-0.52916 0.0728,0 -0.0832,0.23812 -0.3466,0.52916 -0.26339,0.29104 -0.53842,0.52917 -0.61118,0.52917 -0.0728,0 0.0832,-0.23813 0.3466,-0.52917 z m 2.38125,-2.116664 c 0.26339,-0.291042 0.53842,-0.529167 0.61118,-0.529167 0.0728,0 -0.0832,0.238125 -0.3466,0.529167 -0.26339,0.291042 -0.53842,0.529164 -0.61118,0.529164 -0.0728,0 0.0832,-0.238122 0.3466,-0.529164 z m 1.98437,-1.687396 c 0,-0.05494 0.20836,-0.2633 0.46302,-0.463021 0.41965,-0.329107 0.42901,-0.319749 0.0999,0.0999 -0.34565,0.44073 -0.56292,0.580888 -0.56292,0.363125 z m 2.38125,-2.116667 c 0,-0.05494 0.20836,-0.2633 0.46302,-0.463021 0.41965,-0.329107 0.42901,-0.319749 0.0999,0.0999 -0.34565,0.440729 -0.56292,0.580887 -0.56292,0.363124 z m 2.64583,-2.38125 c 0,-0.05494 0.20836,-0.2633 0.46303,-0.463021 0.41964,-0.329107 0.429,-0.319748 0.0999,0.0999 -0.34564,0.440729 -0.56292,0.580887 -0.56292,0.363124 z m 2.11667,-1.852083 c 0,-0.05494 0.20836,-0.2633 0.46302,-0.463021 0.41965,-0.329107 0.42901,-0.319749 0.0999,0.0999 -0.34565,0.44073 -0.56292,0.580888 -0.56292,0.363125 z"
         id="path211" /><path
         style="fill:#656565;stroke-width:0.264583"
         d="M 40.667866,225.2985 C 36.949642,220.38717 31.872445,213.68991 29.385207,210.41569 17.541272,194.82424 14.807394,191.13932 14.807394,190.76662 c 0,-0.22139 1.075062,-6.04099 2.389027,-12.93245 1.313964,-6.89147 3.152686,-16.63759 4.086048,-21.65806 0.933362,-5.02047 3.257663,-17.40297 5.165113,-27.51667 1.90745,-10.1137 5.242051,-27.79448 7.410224,-39.290622 2.168173,-11.496146 4.204807,-22.328346 4.525851,-24.071555 l 0.583718,-3.169473 0.730877,0.920514 c 0.944585,1.189672 5.51903,7.149076 9.744291,12.694472 3.160853,4.148427 6.557862,8.583301 12.463876,16.271875 1.453173,1.891771 4.264284,5.567884 6.246915,8.169139 l 3.604784,4.72955 -2.966871,15.64336 c -1.631778,8.60385 -4.438814,23.38243 -6.237861,32.84128 -4.063974,21.36719 -7.000158,37.0662 -7.000158,37.42803 0,0.18485 2.864358,0.2751 8.73125,0.2751 6.012336,0 8.73125,0.088 8.73125,0.28243 0,0.15534 -0.833438,4.6459 -1.852084,9.97902 -1.018646,5.33312 -1.852083,9.78993 -1.852083,9.90402 0,0.11409 6.420935,0.20744 14.268741,0.20744 h 14.268741 l 0.281969,-1.38906 c 0.155083,-0.76398 0.997186,-5.19906 1.871338,-9.85573 0.87416,-4.65666 1.64494,-8.61549 1.71286,-8.79739 0.0977,-0.26153 5.60615,-0.33073 26.32555,-0.33073 14.41113,0 26.20205,0.0493 26.20205,0.10964 0,0.0603 -0.99922,5.44789 -2.22048,11.9724 -1.22126,6.52451 -2.30329,12.36876 -2.40451,12.98723 l -0.18402,1.12448 h 14.30571 14.30572 l 0.13776,-0.59532 c 0.0758,-0.32742 0.91702,-4.88156 1.86946,-10.12031 0.95244,-5.23875 1.81545,-9.77635 1.9178,-10.08355 0.15609,-0.46847 1.09292,0.64112 5.80815,6.87916 3.09212,4.09075 6.84583,9.04507 8.34156,11.0096 1.49574,1.96453 5.48964,7.23305 8.87534,11.70781 l 6.15582,8.13594 H 129.28969 47.428273 Z m 190.118804,7.265 c -0.69284,-0.96337 -7.26961,-9.65504 -14.95851,-19.76877 -1.27133,-1.67227 -5.50143,-7.24751 -9.40022,-12.38941 l -7.0887,-9.34891 2.94444,-15.52192 c 1.61944,-8.53706 3.31181,-17.48645 3.76082,-19.88755 0.44901,-2.40109 2.24644,-11.86656 3.99429,-21.03437 1.74785,-9.16782 3.66203,-19.28813 4.25373,-22.48959 0.59171,-3.20145 1.14329,-6.14825 1.22575,-6.54843 l 0.14992,-0.72761 h -8.22311 c -6.54577,0 -8.2231,-0.0697 -8.2231,-0.34193 0,-0.18806 0.29701,-1.8847 0.66001,-3.77031 0.36302,-1.88561 0.66067,-3.57721 0.66146,-3.759112 0.001,-0.260508 -3.02602,-0.330729 -14.25777,-0.330729 h -14.25921 l -0.7608,4.034901 -0.7608,4.03489 -26.25499,0.0674 c -14.44024,0.0371 -26.25811,-0.0224 -26.26192,-0.13229 -0.004,-0.10985 0.55394,-3.20392 1.23945,-6.875718 0.68552,-3.671798 1.17251,-6.749881 1.0822,-6.840186 -0.0903,-0.09031 -3.71391,3.000005 -8.05247,6.867356 l -7.88829,7.031548 -5.866299,0.007 -5.866305,0.007 -9.066633,-11.840101 C 78.582966,86.494781 73.592369,79.97611 72.479399,78.520901 71.366432,77.065693 68.040145,72.719912 65.087655,68.86361 l -5.368163,-7.011458 102.206458,-0.06649 c 56.21355,-0.03657 102.26512,-0.0078 102.33683,0.06388 0.0717,0.0717 -1.26196,7.423964 -2.9637,16.338361 -1.70173,8.914396 -3.85304,20.256118 -4.78068,25.203817 -1.67351,8.92595 -4.03828,21.3941 -10.86441,57.28229 -1.95136,10.25922 -4.03703,21.2725 -4.63481,24.47396 -0.59779,3.20146 -2.86483,15.15188 -5.03788,26.55648 -2.17304,11.40461 -3.95099,20.95235 -3.95099,21.2172 0,0.88917 -0.43711,0.76328 -1.24364,-0.35816 z"
         id="path209" /></g></g></svg>
