<?xml version="1.0" encoding="UTF-8" standalone="no"?>
<!-- Created with Inkscape (http://www.inkscape.org/) -->

<svg
   width="210mm"
   height="297mm"
   viewBox="0 0 210 297"
   version="1.1"
   id="svg5"
   xml:space="preserve"
   inkscape:version="1.2.2 (732a01da63, 2022-12-09)"
   sodipodi:docname="arrow.svg"
   xmlns:inkscape="http://www.inkscape.org/namespaces/inkscape"
   xmlns:sodipodi="http://sodipodi.sourceforge.net/DTD/sodipodi-0.dtd"
   xmlns="http://www.w3.org/2000/svg"
   xmlns:svg="http://www.w3.org/2000/svg"><sodipodi:namedview
     id="namedview7"
     pagecolor="#ffffff"
     bordercolor="#000000"
     borderopacity="0.25"
     inkscape:showpageshadow="2"
     inkscape:pageopacity="0.0"
     inkscape:pagecheckerboard="0"
     inkscape:deskcolor="#d1d1d1"
     inkscape:document-units="mm"
     showgrid="false"
     inkscape:zoom="0.37727623"
     inkscape:cx="-2954.069"
     inkscape:cy="-6165.244"
     inkscape:window-width="1920"
     inkscape:window-height="1027"
     inkscape:window-x="-8"
     inkscape:window-y="22"
     inkscape:window-maximized="1"
     inkscape:current-layer="layer1" /><defs
     id="defs2" /><g
     inkscape:label="Layer 1"
     inkscape:groupmode="layer"
     id="layer1"><path
       style="fill:#000000;stroke:none;stroke-width:0.802269"
       d="m -988.54604,-1769.1197 c -23.42976,6.1111 1.5519,29.1834 8.8249,36.4568 l 89.85423,89.8544 c 8.04436,8.0441 22.36326,29.439 35.29987,27.0035 5.36878,-1.0109 9.16913,-5.6881 12.8363,-9.3537 l 22.46357,-22.4635 86.64509,-86.6451 c 5.17144,-5.1714 12.98394,-10.7664 15.86249,-17.6501 3.30295,-7.8992 -2.55605,-17.0601 -11.04888,-17.5625 -11.18442,-0.6616 -21.78481,15.2792 -28.88167,22.3761 l -70.59975,70.5999 -21.66128,21.6612 c -1.98882,1.9882 -5.53807,7.1153 -8.82494,6.2521 -3.0406,-0.7981 -5.88787,-4.9195 -8.02272,-7.0545 l -18.45218,-18.4521 -68.19293,-68.193 c -8.0869,-8.0868 -22.9168,-30.2686 -36.1021,-26.8295 m 0,102.6906 c -23.42976,6.1108 1.5519,29.1834 8.8249,36.4568 l 89.85423,89.8541 c 8.04436,8.0444 22.36326,29.4393 35.29987,27.0035 5.36878,-1.0106 9.16913,-5.6881 12.8363,-9.3534 l 22.46357,-22.4638 86.64509,-86.6451 c 5.02462,-5.0246 12.34614,-10.3331 15.42847,-16.8475 3.78909,-8.0059 -1.63184,-17.8336 -10.61486,-18.3648 -11.18442,-0.6619 -21.78481,15.2793 -28.88167,22.3761 l -70.59975,70.5996 -21.66128,21.6615 c -1.98882,1.9879 -5.53807,7.1153 -8.82494,6.2521 -3.0406,-0.7984 -5.88787,-4.9195 -8.02272,-7.0544 l -18.45218,-18.4522 -68.19293,-68.193 c -8.0869,-8.0868 -22.9168,-30.2689 -36.1021,-26.8295 z"
       id="path404" /></g></svg>
