<?xml version="1.0" encoding="UTF-8" standalone="no"?>
<!-- Created with Inkscape (http://www.inkscape.org/) -->

<svg
   width="210mm"
   height="297mm"
   viewBox="0 0 210 297"
   version="1.1"
   id="svg5"
   xml:space="preserve"
   inkscape:version="1.2.2 (732a01da63, 2022-12-09)"
   sodipodi:docname="folder.svg"
   xmlns:inkscape="http://www.inkscape.org/namespaces/inkscape"
   xmlns:sodipodi="http://sodipodi.sourceforge.net/DTD/sodipodi-0.dtd"
   xmlns="http://www.w3.org/2000/svg"
   xmlns:svg="http://www.w3.org/2000/svg"><sodipodi:namedview
     id="namedview7"
     pagecolor="#ffffff"
     bordercolor="#000000"
     borderopacity="0.25"
     inkscape:showpageshadow="2"
     inkscape:pageopacity="0.0"
     inkscape:pagecheckerboard="0"
     inkscape:deskcolor="#d1d1d1"
     inkscape:document-units="mm"
     showgrid="false"
     inkscape:zoom="0.13338729"
     inkscape:cx="-1375.6933"
     inkscape:cy="-5772.6639"
     inkscape:window-width="1920"
     inkscape:window-height="1027"
     inkscape:window-x="-8"
     inkscape:window-y="22"
     inkscape:window-maximized="1"
     inkscape:current-layer="layer1" /><defs
     id="defs2" /><g
     inkscape:label="Layer 1"
     inkscape:groupmode="layer"
     id="layer1"><path
       style="fill:#010101;stroke:none;stroke-width:0.352778"
       d="m -215.96046,-1433.922 h 0.35278 c 5.83124,-14.006 13.05567,-27.6168 19.66436,-41.275 2.85464,-5.8998 5.04878,-13.6857 10.67453,-17.5609 4.3217,-2.9771 9.43821,-2.9002 14.46388,-2.9002 h 20.46112 86.430556 c 0,-7.6362 2.46486,-19.7785 -5.99722,-23.8467 -5.6007,-2.6928 -14.04867,-1.2005 -20.10833,-1.2005 h -33.513886 c -5.20841,0 -11.08359,0.7687 -16.2225,-0.052 -2.25143,-0.3595 -3.68018,-3.5447 -4.89479,-5.2395 -3.0921,-4.3156 -6.19972,-10.6976 -10.63801,-13.7213 -4.10845,-2.7992 -9.39271,-2.1537 -14.10582,-2.1537 h -28.575 c -4.68916,0 -9.78257,-0.6015 -13.75696,2.3851 -7.11154,5.3439 -4.23471,19.7641 -4.23471,27.601 v 77.9639 m 42.68611,-50.9887 c -8.1885,1.4735 -10.94327,8.7397 -14.19712,15.3582 -7.181,14.606 -13.71526,29.5387 -20.99356,44.0972 -3.10119,6.2032 -10.52417,15.634 -3.2482,21.1924 3.74915,2.8638 8.24742,2.4437 12.6861,2.4437 h 22.93056 68.4389 21.519436 c 3.90737,0 8.15975,0.4724 11.99444,-0.3581 7.90999,-1.7124 10.5784,-8.63 13.84547,-15.1641 5.34,-10.6804 10.53607,-21.4253 15.875,-32.1028 2.75097,-5.5019 6.73383,-11.363 8.40635,-17.2861 1.70215,-6.0272 -0.45085,-12.3074 -5.67126,-15.9085 -4.06576,-2.8046 -8.71432,-2.436 -13.40556,-2.436 h -21.87222 -64.558336 c -10.11978,0 -21.7992,-1.627 -31.75,0.1641 z"
       id="path408" /></g></svg>
