<?xml version="1.0" encoding="UTF-8" standalone="no"?>
<!-- Created with Inkscape (http://www.inkscape.org/) -->

<svg
   width="210mm"
   height="297mm"
   viewBox="0 0 210 297"
   version="1.1"
   id="svg5"
   xml:space="preserve"
   inkscape:version="1.2.2 (732a01da63, 2022-12-09)"
   sodipodi:docname="Home.svg"
   xmlns:inkscape="http://www.inkscape.org/namespaces/inkscape"
   xmlns:sodipodi="http://sodipodi.sourceforge.net/DTD/sodipodi-0.dtd"
   xmlns="http://www.w3.org/2000/svg"
   xmlns:svg="http://www.w3.org/2000/svg"><sodipodi:namedview
     id="namedview7"
     pagecolor="#ffffff"
     bordercolor="#000000"
     borderopacity="0.25"
     inkscape:showpageshadow="2"
     inkscape:pageopacity="0.0"
     inkscape:pagecheckerboard="0"
     inkscape:deskcolor="#d1d1d1"
     inkscape:document-units="mm"
     showgrid="false"
     inkscape:zoom="0.53354917"
     inkscape:cx="-113.39161"
     inkscape:cy="654.11029"
     inkscape:window-width="1920"
     inkscape:window-height="1027"
     inkscape:window-x="-8"
     inkscape:window-y="22"
     inkscape:window-maximized="1"
     inkscape:current-layer="layer1" /><defs
     id="defs2" /><g
     inkscape:label="Layer 1"
     inkscape:groupmode="layer"
     id="layer1"><path
       style="fill:#ffffff;stroke-width:0.357065"
       d="m 54.178951,219.86065 c -1.87396,-0.31669 -5.61701,-1.6468 -7.594004,-2.69765 -4.241435,-2.25427 -8.631542,-7.18575 -10.510249,-11.80917 -1.881441,-4.63062 -1.891518,-4.84396 -1.891518,-40.80613 0,-18.34484 -0.0691,-33.35405 -0.152588,-33.35405 -0.08349,0 -1.480969,0.64202 -3.105429,1.42799 -3.275235,1.58346 -5.145247,1.80515 -7.371912,0.87522 -3.513157,-1.4683 -5.224419,-5.4212 -3.949617,-9.1242 0.991536,-2.88017 1.79248,-3.56365 9.123941,-7.78603 3.883975,-2.237 7.543847,-4.50768 8.13301,-5.04664 1.668106,-1.52588 54.321296,-34.951338 57.130616,-36.268203 4.29639,-2.012438 9.006649,-2.668855 13.712269,-1.903035 4.6018,0.745667 7.13425,2.09305 20.74463,11.025219 l 13.0329,8.553578 0.095,-8.727759 0.095,-8.728046 h 7.48779 7.48782 l 0.095,13.300795 0.095,13.300511 5.67375,3.8196 c 3.12054,2.10169 6.09313,4.20971 6.60571,4.68648 0.51276,0.47792 4.0881,2.96654 7.94556,5.53233 6.94153,4.61738 7.02496,4.68791 8.12325,6.88576 2.38988,4.78234 0.89854,9.30903 -3.69937,11.2302 -2.48949,1.03933 -5.38412,0.41171 -8.44061,-1.83105 l -1.74699,-1.28405 v 33.38487 c 0,27.31415 -0.0921,33.86508 -0.50555,36.02752 -1.67617,8.76029 -7.48296,15.37571 -16.27648,18.5435 l -2.32106,0.83491 -48.56103,0.0576 c -26.708559,0.0245 -48.962739,-0.0239 -49.453699,-0.11516 z m 18.21039,-40.2856 0.1785,-25.35152 0.83319,-2.3205 c 1.32723,-3.69695 2.8439,-6.05573 5.74452,-8.93303 3.03469,-3.01059 6.45295,-4.94127 10.38296,-5.86486 3.35012,-0.78597 23.072809,-0.78597 26.422929,0 3.93001,0.92417 7.34827,2.85312 10.38296,5.86486 2.90062,2.87615 4.41741,5.23608 5.74452,8.93303 l 0.83319,2.3205 0.1785,25.35152 0.1785,25.35182 6.95693,0.0864 c 4.0752,0.0576 7.73896,-0.0576 8.84485,-0.29366 2.54419,-0.52686 4.66491,-2.18518 5.89002,-4.60011 l 0.98203,-1.93758 -0.01,-38.58841 -0.0101,-38.58841 -3.47135,-2.19669 c -1.90937,-1.20919 -13.16995,-8.40877 -25.02381,-16.00248 -11.85386,-7.593711 -21.94699,-13.956931 -22.42917,-14.140321 -1.2161,-0.463524 -4.3819,-0.388669 -5.549629,0.11516 -0.53377,0.23032 -11.97519,7.58047 -25.42561,16.319451 l -24.45537,15.88962 -0.0153,38.58841 -0.0154,38.58841 0.98203,1.92031 c 0.54011,1.0566 1.57857,2.39535 2.30783,2.97259 2.15408,1.70726 3.90658,1.98653 12.06403,1.9088 l 7.31986,-0.0576 0.1785,-25.35181 z m 45.634559,2.499 c 0.0777,-16.29902 -0.01,-23.40272 -0.30345,-24.77198 -0.53837,-2.50763 -2.64841,-4.73024 -5.07145,-5.3403 -2.22606,-0.56141 -17.591779,-0.56141 -19.817929,0 -2.24132,0.56428 -4.46367,2.78689 -5.02801,5.02792 -0.45633,1.81379 -0.62302,47.43277 -0.17562,47.88104 0.13243,0.14395 7.0021,0.20153 15.264579,0.14395 l 15.02274,-0.0864 z"
       id="path125" /></g></svg>
