<?xml version="1.0" encoding="UTF-8" standalone="no"?>
<!-- Created with Inkscape (http://www.inkscape.org/) -->

<svg
   width="210mm"
   height="297mm"
   viewBox="0 0 210 297"
   version="1.1"
   id="svg5"
   xml:space="preserve"
   inkscape:version="1.2.2 (732a01da63, 2022-12-09)"
   sodipodi:docname="info.svg"
   xmlns:inkscape="http://www.inkscape.org/namespaces/inkscape"
   xmlns:sodipodi="http://sodipodi.sourceforge.net/DTD/sodipodi-0.dtd"
   xmlns="http://www.w3.org/2000/svg"
   xmlns:svg="http://www.w3.org/2000/svg"><sodipodi:namedview
     id="namedview7"
     pagecolor="#ffffff"
     bordercolor="#000000"
     borderopacity="0.25"
     inkscape:showpageshadow="2"
     inkscape:pageopacity="0.0"
     inkscape:pagecheckerboard="0"
     inkscape:deskcolor="#d1d1d1"
     inkscape:document-units="mm"
     showgrid="false"
     inkscape:zoom="3.0182099"
     inkscape:cx="1673.6742"
     inkscape:cy="-3425.5404"
     inkscape:window-width="1920"
     inkscape:window-height="1027"
     inkscape:window-x="-8"
     inkscape:window-y="22"
     inkscape:window-maximized="1"
     inkscape:current-layer="layer1" /><defs
     id="defs2" /><g
     inkscape:label="Layer 1"
     inkscape:groupmode="layer"
     id="layer1"><path
       style="fill:#020202;stroke:none;stroke-width:0.0615012"
       d="m 436.97945,-926.17905 c -0.63617,0.087 -1.24491,0.2587 -1.78353,0.6209 -0.45813,0.308 -0.83919,0.6774 -1.14645,1.1365 -1.83562,2.7428 0.98802,5.8769 3.914,5.5176 0.56814,-0.07 1.11107,-0.2367 1.59902,-0.54 0.46563,-0.2895 0.86981,-0.6511 1.18242,-1.103 1.83625,-2.6547 -0.75652,-6.0415 -3.76546,-5.632 m -9.53269,13.9962 c 1.28685,-0.1901 2.56128,-0.9738 3.87452,-0.3076 1.48304,0.7524 0.61636,3.2312 0.35615,4.4282 -0.56649,2.6056 -1.65616,5.0985 -2.02462,7.7491 -0.18825,1.3538 -0.19791,2.742 0.68543,3.8746 1.86976,2.3971 5.50916,1.8873 7.99424,0.9579 0.56531,-0.2114 1.70087,-0.4148 2.10776,-0.8663 0.31224,-0.3464 0.41396,-1.2969 0.47528,-1.7521 -1.16225,0.3781 -3.3467,1.1551 -4.33404,-0.01 -0.79054,-0.9301 -0.33149,-2.6281 -0.071,-3.6837 0.67486,-2.7345 1.87265,-5.4905 2.13415,-8.3027 0.12165,-1.3081 0.17552,-2.561 -0.62226,-3.6901 -1.75076,-2.4774 -5.37047,-1.858 -7.80801,-1.0455 -0.60124,0.2005 -1.85642,0.4287 -2.28453,0.904 -0.31777,0.3529 -0.38801,1.2801 -0.48303,1.7406 z"
       id="path410" /></g></svg>
