<?xml version="1.0" encoding="UTF-8" standalone="no"?>
<!-- Created with Inkscape (http://www.inkscape.org/) -->

<svg
   width="210mm"
   height="297mm"
   viewBox="0 0 210 297"
   version="1.1"
   id="svg5"
   xml:space="preserve"
   inkscape:version="1.2.2 (732a01da63, 2022-12-09)"
   sodipodi:docname="menu hamburger.svg"
   xmlns:inkscape="http://www.inkscape.org/namespaces/inkscape"
   xmlns:sodipodi="http://sodipodi.sourceforge.net/DTD/sodipodi-0.dtd"
   xmlns="http://www.w3.org/2000/svg"
   xmlns:svg="http://www.w3.org/2000/svg"><sodipodi:namedview
     id="namedview7"
     pagecolor="#ffffff"
     bordercolor="#000000"
     borderopacity="0.25"
     inkscape:showpageshadow="2"
     inkscape:pageopacity="0.0"
     inkscape:pagecheckerboard="0"
     inkscape:deskcolor="#d1d1d1"
     inkscape:document-units="mm"
     showgrid="false"
     inkscape:zoom="0.13338729"
     inkscape:cx="-1375.6933"
     inkscape:cy="-5772.6639"
     inkscape:window-width="1920"
     inkscape:window-height="1027"
     inkscape:window-x="-8"
     inkscape:window-y="22"
     inkscape:window-maximized="1"
     inkscape:current-layer="layer1" /><defs
     id="defs2" /><g
     inkscape:label="Layer 1"
     inkscape:groupmode="layer"
     id="layer1"><path
       style="fill:#020202;stroke:none;stroke-width:0.264583"
       d="m -462.1954,-1805.2204 c -5.35336,1.2375 -5.51826,9.2452 -0.26458,10.7637 2.98868,0.8636 6.95341,0.2087 10.05417,0.2087 h 20.63749 67.46875 22.48958 c 2.84533,0 6.69581,0.7205 8.97097,-1.3795 3.07922,-2.8418 2.05052,-8.3269 -2.0918,-9.5241 -2.31775,-0.6699 -5.27368,-0.2089 -7.67292,-0.2089 h -15.875 -70.64374 -22.225 c -3.40783,0 -7.52435,-0.6282 -10.84792,0.1401 m 0.79375,43.11 c -5.50878,0.9935 -6.98008,8.7469 -1.32291,10.8416 2.86673,1.0612 6.76933,0.4125 9.78958,0.4125 h 20.10833 69.05625 22.225 c 2.92391,0 6.62913,0.6053 8.90878,-1.6746 3.06652,-3.0665 1.50971,-8.2753 -2.55878,-9.3956 -2.56038,-0.7051 -5.56578,-0.3069 -8.20209,-0.3069 h -15.34583 -69.32083 -22.225 c -3.5737,0 -7.5932,-0.512 -11.1125,0.123 m -0.52916,43.3925 c -5.3874,1.0358 -6.01035,8.8813 -0.79375,10.6952 2.75764,0.9592 6.6263,0.2935 9.525,0.2935 h 20.63749 68.79167 22.225 c 2.95063,0 6.68311,0.6876 8.96725,-1.6153 2.86333,-2.8872 1.5838,-8.1137 -2.35267,-9.2488 -2.42226,-0.6985 -5.43401,-0.2484 -7.9375,-0.2484 h -16.13958 -69.58542 -22.22499 c -3.5537,0 -7.62011,-0.5475 -11.1125,0.1238 z"
       id="path400" /></g></svg>
