<?xml version="1.0" encoding="UTF-8" standalone="no"?>
<!-- Created with Inkscape (http://www.inkscape.org/) -->

<svg
   width="210mm"
   height="297mm"
   viewBox="0 0 210 297"
   version="1.1"
   id="svg5"
   xml:space="preserve"
   inkscape:version="1.2.2 (732a01da63, 2022-12-09)"
   sodipodi:docname="squares.svg"
   xmlns:inkscape="http://www.inkscape.org/namespaces/inkscape"
   xmlns:sodipodi="http://sodipodi.sourceforge.net/DTD/sodipodi-0.dtd"
   xmlns="http://www.w3.org/2000/svg"
   xmlns:svg="http://www.w3.org/2000/svg"><sodipodi:namedview
     id="namedview7"
     pagecolor="#ffffff"
     bordercolor="#000000"
     borderopacity="0.25"
     inkscape:showpageshadow="2"
     inkscape:pageopacity="0.0"
     inkscape:pagecheckerboard="0"
     inkscape:deskcolor="#d1d1d1"
     inkscape:document-units="mm"
     showgrid="false"
     inkscape:zoom="0.13338729"
     inkscape:cx="-1375.6933"
     inkscape:cy="-5772.6639"
     inkscape:window-width="1920"
     inkscape:window-height="1027"
     inkscape:window-x="-8"
     inkscape:window-y="22"
     inkscape:window-maximized="1"
     inkscape:current-layer="layer1" /><defs
     id="defs2" /><g
     inkscape:label="Layer 1"
     inkscape:groupmode="layer"
     id="layer1"><path
       style="fill:#010101;stroke:none;stroke-width:0.163871"
       d="m -263.64302,-1460.495 c -2.46663,0.3541 -4.65619,1.8867 -5.40066,4.3543 -0.70682,2.3428 -0.33482,5.117 -0.33482,7.5381 v 14.2568 c 0,2.6596 -0.44038,5.7581 1.24699,8.0296 2.06048,2.7739 5.15884,2.622 8.25753,2.622 h 14.42064 c 2.62751,0 5.44035,0.2843 8.02968,-0.2149 2.25945,-0.4355 4.26573,-2.4418 4.70129,-4.7013 0.46982,-2.4369 0.21484,-5.0657 0.21484,-7.538 v -13.4374 c 0,-2.7418 0.49309,-6.015 -1.24706,-8.3575 -2.06035,-2.7738 -5.15882,-2.6219 -8.25746,-2.6219 h -14.25677 c -2.40381,0 -4.99399,-0.2716 -7.3742,0.07 m 47.03097,0 c -2.46658,0.3541 -4.65623,1.8867 -5.40069,4.3543 -0.70678,2.3428 -0.33479,5.117 -0.33479,7.5381 v 14.2568 c 0,2.6737 -0.41099,5.7327 1.25099,8.0296 1.96924,2.7218 5.08311,2.622 8.08966,2.622 h 14.58451 c 2.56376,0 5.34105,0.2999 7.86581,-0.1795 2.30566,-0.4377 4.2867,-2.2763 4.8337,-4.5728 0.56945,-2.391 0.2463,-5.0942 0.2463,-7.5381 v -13.929 c 0,-2.7272 0.45409,-5.9123 -1.37308,-8.1935 -2.13458,-2.665 -5.21421,-2.4581 -8.29531,-2.4581 h -14.0929 c -2.40383,0 -4.99397,-0.2716 -7.3742,0.07 m -47.03097,47.0309 c -2.46663,0.3541 -4.65619,1.8868 -5.40066,4.3544 -0.70682,2.3428 -0.33482,5.117 -0.33482,7.5381 v 14.2567 c 0,2.6597 -0.44038,5.7581 1.24699,8.0297 2.02442,2.7253 5.0408,2.6219 8.09366,2.6219 h 14.58451 c 2.56376,0 5.34105,0.2999 7.86581,-0.1794 2.36908,-0.4497 4.36962,-2.3668 4.86926,-4.7367 0.50833,-2.411 0.21074,-5.0836 0.21074,-7.5381 v -13.6012 c 0,-2.7704 0.46048,-6.0295 -1.37488,-8.3575 -2.09492,-2.6575 -5.24862,-2.458 -8.29351,-2.458 h -14.0929 c -2.40381,0 -4.99399,-0.2716 -7.3742,0.07 m 47.19484,-5e-4 c -2.50247,0.3409 -4.63574,1.7174 -5.50819,4.191 -0.80625,2.286 -0.39116,5.1518 -0.39116,7.5381 v 14.5845 c 0,2.618 -0.41345,5.6304 1.24706,7.8658 2.06035,2.7738 5.15882,2.6219 8.25746,2.6219 h 14.42064 c 2.5128,0 5.22323,0.2847 7.70194,-0.1514 2.37645,-0.418 4.43091,-2.2214 4.99757,-4.6008 0.56945,-2.3911 0.2463,-5.0943 0.2463,-7.5381 v -13.7651 c 0,-2.701 0.46687,-5.8863 -1.24706,-8.1936 -2.06035,-2.7738 -5.15882,-2.6219 -8.25746,-2.6219 h -14.0929 c -2.41022,0 -4.98545,-0.2557 -7.3742,0.07 z"
       id="path402" /></g></svg>
