<?xml version="1.0" encoding="UTF-8" standalone="no"?>
<!-- Created with Inkscape (http://www.inkscape.org/) -->

<svg
   width="210mm"
   height="297mm"
   viewBox="0 0 210 297"
   version="1.1"
   id="svg5"
   xml:space="preserve"
   inkscape:version="1.2.2 (732a01da63, 2022-12-09)"
   sodipodi:docname="X.svg"
   xmlns:inkscape="http://www.inkscape.org/namespaces/inkscape"
   xmlns:sodipodi="http://sodipodi.sourceforge.net/DTD/sodipodi-0.dtd"
   xmlns="http://www.w3.org/2000/svg"
   xmlns:svg="http://www.w3.org/2000/svg"><sodipodi:namedview
     id="namedview7"
     pagecolor="#ffffff"
     bordercolor="#000000"
     borderopacity="0.25"
     inkscape:showpageshadow="2"
     inkscape:pageopacity="0.0"
     inkscape:pagecheckerboard="0"
     inkscape:deskcolor="#d1d1d1"
     inkscape:document-units="mm"
     showgrid="false"
     inkscape:zoom="0.75455247"
     inkscape:cx="186.20309"
     inkscape:cy="561.92249"
     inkscape:window-width="1920"
     inkscape:window-height="1027"
     inkscape:window-x="-8"
     inkscape:window-y="22"
     inkscape:window-maximized="1"
     inkscape:current-layer="layer1" /><defs
     id="defs2" /><g
     inkscape:label="Layer 1"
     inkscape:groupmode="layer"
     id="layer1"><g
       id="g440"
       transform="translate(7.0129869,22.441556)"
       style="fill:#000000"><path
         style="fill:#000000;fill-opacity:1;stroke-width:0.264583"
         d="m 79.23857,145.50393 c 12.514157,-12.51479 22.81254,-22.75417 22.8853,-22.75417 0.0728,0 -10.10656,10.23938 -22.620716,22.75417 -12.514156,12.51479 -22.812543,22.75417 -22.885304,22.75417 -0.07276,0 10.106564,-10.23938 22.62072,-22.75417 z m 58.07172,-24.5401 -3.03839,-3.10886 3.10886,3.0384 c 1.70986,1.67111 3.10885,3.0701 3.10885,3.10885 0,0.19054 -0.35708,-0.15071 -3.17932,-3.03839 z m 5.95744,-39.489064 c 12.51416,-12.514791 22.81255,-22.754165 22.88531,-22.754165 0.0728,0 -10.10657,10.239374 -22.62072,22.754165 -12.51416,12.514791 -22.81255,22.754164 -22.88531,22.754164 -0.0728,0 10.10657,-10.239373 22.62072,-22.754164 z m -51.201184,-5.490104 -3.038393,-3.108854 3.108854,3.038393 c 2.887687,2.822236 3.228938,3.179315 3.038393,3.179315 -0.03875,0 -1.437738,-1.398984 -3.108854,-3.108854 z"
         id="path456" /><path
         style="fill:#000000;fill-opacity:1;stroke-width:0.264583"
         d="m 165.88961,168.42278 c 0,-0.0549 0.20836,-0.2633 0.46302,-0.46302 0.41964,-0.32911 0.429,-0.31975 0.0999,0.0999 -0.34564,0.44073 -0.56291,0.58089 -0.56291,0.36312 z m -23.54792,-42.36572 c -1.08412,-1.09141 -1.9116,-1.98438 -1.83884,-1.98438 0.0728,0 1.0193,0.89297 2.10343,1.98438 1.08412,1.0914 1.91159,1.98437 1.83883,1.98437 -0.0728,0 -1.0193,-0.89297 -2.10342,-1.98437 z M 97.097945,81.077891 c -1.084123,-1.091406 -1.911599,-1.984375 -1.838839,-1.984375 0.07276,0 1.0193,0.892969 2.103422,1.984375 1.084122,1.091406 1.911599,1.984375 1.838838,1.984375 -0.07276,0 -1.019299,-0.892969 -2.103421,-1.984375 z"
         id="path454" /><path
         style="fill:#000000;fill-opacity:1;stroke-width:0.264583"
         d="m 124.74632,145.1732 -22.489,-22.55573 22.55573,22.489 c 12.40565,12.36895 22.55573,22.51903 22.55573,22.55573 0,0.0367 -0.03,0.0667 -0.0667,0.0667 -0.0367,0 -10.18677,-10.15008 -22.55572,-22.55573 z m 22.08806,-14.68437 -2.50831,-2.57969 2.57968,2.50831 c 1.41883,1.37958 2.57969,2.54044 2.57969,2.57969 0,0.19173 -0.32136,-0.11233 -2.65106,-2.50831 z M 61.114039,81.540912 38.228156,58.588309 61.180759,81.474192 c 12.623932,12.587237 22.952603,22.915908 22.952603,22.952608 0,0.0367 -0.03003,0.0667 -0.06672,0.0667 -0.03669,0 -10.365367,-10.328676 -22.952603,-22.952608 z m 39.547501,3.042708 -1.579221,-1.653646 1.653651,1.579219 c 1.53609,1.466958 1.77471,1.728073 1.57921,1.728073 -0.0409,0 -0.78507,-0.744141 -1.65364,-1.653646 z M 168.8516,50.650809 c 0.005,-0.436562 0.0647,-0.583124 0.13178,-0.325693 0.0671,0.257431 0.0627,0.614618 -0.01,0.79375 -0.0725,0.179131 -0.12735,-0.03149 -0.12196,-0.468057 z m -111.318808,-8.929687 -1.31297,-1.389062 1.389062,1.31297 c 1.290742,1.220036 1.5104,1.465155 1.31297,1.465155 -0.04185,0 -0.666928,-0.625078 -1.389062,-1.389063 z"
         id="path452" /><path
         style="fill:#000000;fill-opacity:1;stroke-width:0.264583"
         d="m 151.0653,134.72216 -1.71215,-1.78594 1.78594,1.71215 c 1.65885,1.59032 1.90688,1.85973 1.71215,1.85973 -0.0406,0 -0.84426,-0.80368 -1.78594,-1.78594 z M 35.206336,50.099594 c 0.0127,-0.308224 0.07539,-0.370919 0.159852,-0.159852 0.07643,0.190996 0.06703,0.419199 -0.02089,0.507118 -0.08792,0.08792 -0.150453,-0.06835 -0.138964,-0.347266 z m 25.634656,-5.07118 -1.446171,-1.521354 1.521355,1.44617 c 0.836744,0.795393 1.521354,1.480003 1.521354,1.521354 0,0.196388 -0.253,-0.03278 -1.596538,-1.44617 z"
         id="path450" /><path
         style="fill:#000000;fill-opacity:1;stroke-width:0.264583"
         d="m 60.982321,127.51226 c 12.659685,-12.66031 23.07714,-23.01874 23.149901,-23.01874 0.07276,0 -10.225632,10.35843 -22.885317,23.01874 -12.659685,12.66032 -23.07714,23.01875 -23.1499,23.01875 -0.07276,0 10.225632,-10.35843 22.885316,-23.01875 z m 94.451279,11.57552 -2.64087,-2.71197 2.71198,2.64086 c 1.49159,1.45248 2.71198,2.67287 2.71198,2.71198 0,0.1914 -0.33024,-0.12197 -2.78309,-2.64087 z M 124.7469,63.747684 c 12.36863,-12.369271 22.54795,-22.489583 22.62071,-22.489583 0.0728,0 -9.9875,10.120312 -22.35613,22.489583 -12.36862,12.36927 -22.54794,22.489582 -22.6207,22.489582 -0.0728,0 9.98749,-10.120312 22.35612,-22.489582 z M 65.210138,49.394039 62.834405,46.946643 65.2818,49.322376 c 2.273086,2.206528 2.567834,2.519058 2.375734,2.519058 -0.03942,0 -1.140743,-1.101328 -2.447396,-2.447395 z"
         id="path448" /><path
         style="fill:#000000;fill-opacity:1;stroke-width:0.264583"
         d="m 160.06877,143.78414 c -1.08412,-1.09141 -1.91159,-1.98438 -1.83883,-1.98438 0.0728,0 1.0193,0.89297 2.10342,1.98438 1.08412,1.0914 1.9116,1.98437 1.83884,1.98437 -0.0728,0 -1.0193,-0.89297 -2.10343,-1.98437 z M 69.581279,53.825809 c -1.084122,-1.091406 -1.911598,-1.984375 -1.838838,-1.984375 0.07276,0 1.019299,0.892969 2.103422,1.984375 1.084122,1.091406 1.911598,1.984375 1.838838,1.984375 -0.07276,0 -1.0193,-0.892969 -2.103422,-1.984375 z"
         id="path446" /><path
         style="fill:#000000;fill-opacity:1;stroke-width:0.264583"
         d="m 164.29627,147.95133 -2.24312,-2.31511 2.3151,2.24312 c 1.27331,1.23371 2.31511,2.27551 2.31511,2.3151 0,0.19252 -0.30375,-0.0929 -2.38709,-2.24311 z m -43.14127,-42.8625 -0.64143,-0.72761 0.7276,0.64144 c 0.68006,0.59951 0.84894,0.81377 0.64143,0.81377 -0.0474,0 -0.37481,-0.32742 -0.7276,-0.7276 z m -46.685136,-46.434375 -2.11046,-2.182813 2.182813,2.11046 c 1.200546,1.160752 2.182812,2.143018 2.182812,2.182812 0,0.192974 -0.295034,-0.08313 -2.255165,-2.110459 z"
         id="path444" /><path
         style="fill:#000000;fill-opacity:1;stroke-width:0.264583"
         d="m 44.961961,171.15239 c -6.119943,-0.90104 -10.142363,-5.61683 -10.141898,-11.89013 1.81e-4,-2.42961 0.477109,-4.30241 1.617099,-6.35 0.422184,-0.7583 9.224882,-9.76471 24.242934,-24.80395 L 84.260153,104.49499 60.939231,81.144773 C 42.66813,62.850722 37.474544,57.505653 36.95438,56.460342 c -1.216162,-2.443972 -1.583879,-4.212334 -1.44159,-6.93264 0.117033,-2.237438 0.23544,-2.691186 1.221629,-4.681398 1.868495,-3.770779 5.274629,-6.325168 9.387665,-7.040166 2.882273,-0.501047 6.445035,0.228814 8.824071,1.807681 0.60917,0.404281 11.541291,11.08 24.293598,23.723819 l 23.186017,22.988763 23.19911,-23.18481 c 21.91837,-21.904869 23.29565,-23.228443 24.94788,-23.975143 2.50042,-1.130026 4.80501,-1.480326 7.2988,-1.109422 7.48449,1.11318 12.41971,8.477103 10.53379,15.71764 -0.90532,3.475785 -0.30552,2.814465 -24.76657,27.306723 -12.64611,12.662235 -22.99292,23.086981 -22.99292,23.166111 0,0.0791 10.60397,10.73365 23.56437,23.67671 22.30449,22.27465 23.61269,23.63269 24.46802,25.40035 1.27013,2.62487 1.63472,5.24961 1.0961,7.89085 -1.15512,5.6643 -5.15835,9.39778 -10.8082,10.07991 -2.31939,0.28003 -5.83667,-0.25871 -7.98491,-1.22303 -1.84394,-0.82772 -2.49557,-1.45116 -25.30935,-24.21456 L 102.25522,122.49277 78.972937,145.7586 c -22.722657,22.70661 -23.32998,23.28829 -25.266657,24.20013 -2.771228,1.30477 -5.479057,1.67441 -8.744319,1.19366 z"
         id="path442" /></g></g></svg>
